<svg width="34" height="35" viewBox="0 0 34 35" fill="none" xmlns="http://www.w3.org/2000/svg">
<path d="M19.0254 14.4785C18.2584 14.4785 17.6641 15.0729 17.6641 15.8066C17.6641 16.5404 18.2584 17.1348 19.0254 17.1348C19.726 17.1348 20.3203 16.5404 20.3203 15.8066C20.3203 15.0729 19.726 14.4785 19.0254 14.4785ZM9.72852 14.4785C8.96152 14.4785 8.36719 15.0729 8.36719 15.8066C8.36719 16.5404 8.96152 17.1348 9.72852 17.1348C10.4291 17.1348 11.0234 16.5404 11.0234 15.8066C11.0234 15.0729 10.4291 14.4785 9.72852 14.4785Z" fill="white"/>
<path d="M29.6831 11.9551C28.0861 9.76369 25.8548 8.29943 23.4078 7.63869V7.64201C22.84 7.01115 22.1992 6.4301 21.482 5.91213C16.0466 1.96096 8.41655 3.16623 4.44878 8.60158C1.25131 13.0176 1.38745 18.9576 4.64799 23.1778L4.67456 27.5805C4.67456 27.6867 4.69116 27.793 4.72436 27.8926C4.90034 28.4537 5.49799 28.7625 6.05581 28.5865L10.2593 27.2617C11.3716 27.6569 12.5205 27.8826 13.6626 27.9457L13.646 27.959C16.6044 30.1139 20.4826 30.7613 24.0386 29.586L28.2587 30.9606C28.365 30.9938 28.4746 31.0137 28.5874 31.0137C29.1751 31.0137 29.6499 30.5389 29.6499 29.9512V25.502C32.5751 21.5309 32.6515 16.0424 29.6831 11.9551ZM10.7242 24.9043L10.3257 24.7383L7.03862 25.7676L7.00542 22.3145L6.73979 22.0156C3.93081 18.5891 3.74487 13.6518 6.37456 10.0293C9.57534 5.63986 15.7113 4.67033 20.0874 7.83791C24.4769 11.0287 25.4498 17.1547 22.2789 21.5176C19.6193 25.1666 14.858 26.5147 10.7242 24.9043ZM27.4917 24.3399L27.2261 24.6719L27.2593 28.125L24.0054 27.0293L23.607 27.1953C21.7476 27.886 19.7654 27.9424 17.9292 27.4278L17.9226 27.4244C20.3763 26.6707 22.6009 25.1434 24.2046 22.9453C26.7414 19.449 27.1531 15.0563 25.6789 11.311L25.6988 11.3242C26.4624 11.8721 27.163 12.5561 27.7574 13.3828C30.1679 16.6899 30.0318 21.1922 27.4917 24.3399Z" fill="white"/>
<path d="M14.377 14.4785C13.61 14.4785 13.0156 15.0729 13.0156 15.8066C13.0156 16.5404 13.61 17.1348 14.377 17.1348C15.0775 17.1348 15.6719 16.5404 15.6719 15.8066C15.6719 15.0729 15.0775 14.4785 14.377 14.4785Z" fill="white"/>
</svg>
