<svg width="25" height="26" viewBox="0 0 25 26" fill="none" xmlns="http://www.w3.org/2000/svg">
<path d="M12.2734 0.919922C9.04111 0.919922 5.94117 2.20396 3.65557 4.48956C1.36997 6.77516 0.0859375 9.8751 0.0859375 13.1074C0.0859375 16.3397 1.36997 19.4397 3.65557 21.7253C5.94117 24.0109 9.04111 25.2949 12.2734 25.2949C14.7941 25.2949 17.4414 24.5355 19.3551 23.2641C19.4576 23.1959 19.5458 23.1082 19.6145 23.0059C19.6831 22.9037 19.731 22.7889 19.7553 22.6682C19.7796 22.5475 19.7799 22.4231 19.7562 22.3023C19.7325 22.1814 19.6852 22.0664 19.617 21.9639C19.5488 21.8613 19.4611 21.7732 19.3589 21.7045C19.2566 21.6358 19.1419 21.588 19.0211 21.5636C18.9004 21.5393 18.7761 21.539 18.6552 21.5627C18.5344 21.5865 18.4194 21.6338 18.3168 21.702C16.7266 22.7613 14.4074 23.4199 12.2734 23.4199C10.2338 23.4199 8.24 22.8151 6.54412 21.682C4.84824 20.5488 3.52646 18.9382 2.74593 17.0538C1.9654 15.1695 1.76118 13.096 2.15909 11.0956C2.557 9.09512 3.53917 7.25761 4.9814 5.81538C6.42363 4.37315 8.26114 3.39098 10.2616 2.99307C12.262 2.59516 14.3355 2.79939 16.2199 3.57991C18.1042 4.36044 19.7148 5.68222 20.848 7.3781C21.9811 9.07399 22.5859 11.0678 22.5859 13.1074C22.5859 16.207 21.3109 16.8574 20.2422 16.8574C19.1734 16.8574 17.8984 16.207 17.8984 13.1074V8.41992C17.8984 8.17128 17.7997 7.93282 17.6239 7.75701C17.448 7.58119 17.2096 7.48242 16.9609 7.48242C16.7123 7.48242 16.4738 7.58119 16.298 7.75701C16.1222 7.93282 16.0234 8.17128 16.0234 8.41992V8.91914C15.1821 8.16484 14.1331 7.6814 13.0131 7.5318C11.8931 7.38221 10.754 7.57339 9.74426 8.08045C8.73447 8.5875 7.9008 9.38692 7.35185 10.3746C6.8029 11.3622 6.56413 12.4923 6.66663 13.6176C6.76913 14.7428 7.20816 15.8112 7.92653 16.6834C8.64489 17.5556 9.60928 18.1912 10.6941 18.5075C11.7789 18.8237 12.9337 18.806 14.0083 18.4565C15.0828 18.107 16.0272 17.4419 16.7184 16.548C17.4215 17.9543 18.6344 18.7324 20.2422 18.7324C22.8836 18.7324 24.4609 16.6301 24.4609 13.1074C24.4575 9.87614 23.1724 6.77819 20.8875 4.49333C18.6027 2.20847 15.5047 0.923334 12.2734 0.919922ZM12.2734 16.8574C11.5318 16.8574 10.8067 16.6375 10.19 16.2254C9.57337 15.8134 9.09272 15.2277 8.80889 14.5425C8.52506 13.8573 8.4508 13.1033 8.59549 12.3758C8.74019 11.6484 9.09734 10.9802 9.62179 10.4558C10.1462 9.93132 10.8144 9.57417 11.5418 9.42948C12.2693 9.28478 13.0233 9.35905 13.7085 9.64287C14.3937 9.9267 14.9794 10.4073 15.3914 11.024C15.8035 11.6407 16.0234 12.3657 16.0234 13.1074C16.0234 14.102 15.6283 15.0558 14.9251 15.7591C14.2218 16.4623 13.268 16.8574 12.2734 16.8574Z" fill="black"/>
</svg>
