<svg width="26" height="22" viewBox="0 0 26 22" fill="none" xmlns="http://www.w3.org/2000/svg">
<path d="M18.2734 0.107422C19.23 0.107369 20.1503 0.472828 20.8463 1.12903C21.5422 1.78522 21.9611 2.68256 22.0172 3.63742L22.0234 3.85742V6.35742C22.98 6.35737 23.9003 6.72283 24.5963 7.37903C25.2922 8.03522 25.7111 8.93256 25.7672 9.88742L25.7734 10.1074V15.1074C25.7735 16.0639 25.408 16.9843 24.7518 17.6802C24.0956 18.3762 23.1983 18.7951 22.2434 18.8512L22.0234 18.8574V20.0649C22.0234 21.3399 20.5947 22.0574 19.5809 21.3562L19.4609 21.2662L16.5709 18.8574H12.0234C11.102 18.8588 10.2125 18.5195 9.52594 17.9049L9.35094 17.7374L7.02344 19.4824C6.03469 20.2237 4.64094 19.5762 4.53094 18.3837L4.52344 18.2324V16.3574C3.56692 16.3575 2.64654 15.992 1.95061 15.3358C1.25468 14.6796 0.835803 13.7823 0.779688 12.8274L0.773438 12.6074V3.85742C0.773384 2.90091 1.13884 1.98053 1.79504 1.2846C2.45124 0.588663 3.34857 0.169787 4.30344 0.113672L4.52344 0.107422H18.2734ZM22.0234 8.85742H12.0234C11.6919 8.85742 11.374 8.98912 11.1396 9.22354C10.9051 9.45796 10.7734 9.7759 10.7734 10.1074V15.1074C10.7734 15.4389 10.9051 15.7569 11.1396 15.9913C11.374 16.2257 11.6919 16.3574 12.0234 16.3574H16.5709C17.1557 16.3577 17.7218 16.5629 18.1709 16.9374L19.5309 18.0699C19.5716 17.6026 19.7859 17.1675 20.1316 16.8505C20.4774 16.5335 20.9294 16.3575 21.3984 16.3574H22.0234C22.355 16.3574 22.6729 16.2257 22.9073 15.9913C23.1417 15.7569 23.2734 15.4389 23.2734 15.1074V10.1074C23.2734 9.7759 23.1417 9.45796 22.9073 9.22354C22.6729 8.98912 22.355 8.85742 22.0234 8.85742ZM18.2734 2.60742H4.52344C4.19192 2.60742 3.87397 2.73912 3.63955 2.97354C3.40513 3.20796 3.27344 3.5259 3.27344 3.85742V12.6074C3.27344 12.9389 3.40513 13.2569 3.63955 13.4913C3.87397 13.7257 4.19192 13.8574 4.52344 13.8574H5.14844C5.64572 13.8574 6.12263 14.055 6.47426 14.4066C6.82589 14.7582 7.02344 15.2351 7.02344 15.7324V16.3574L8.28594 15.4112C8.27772 15.3101 8.27355 15.2088 8.27344 15.1074V10.1074C8.27344 9.11286 8.66853 8.15903 9.37179 7.45577C10.075 6.75251 11.0289 6.35742 12.0234 6.35742H19.5234V3.85742C19.5234 3.5259 19.3917 3.20796 19.1573 2.97354C18.9229 2.73912 18.605 2.60742 18.2734 2.60742Z" fill="black"/>
</svg>
