<svg width="180" height="56" viewBox="0 0 180 56" fill="none" xmlns="http://www.w3.org/2000/svg">
<rect x="0.273438" y="0.107422" width="179.537" height="55.4451" rx="8" fill="black"/>
<g clip-path="url(#clip0_11844_64)">
<path d="M70.8645 29.1501H62.9438V37.0709H60.3035V29.1501H52.3828V26.5099H60.3035V18.5891H62.9438V26.5099H70.8645V29.1501Z" fill="white"/>
<path d="M96.2051 30.5341C96.2051 30.2704 96.1641 30.036 96.082 29.831C96.0059 29.6259 95.8682 29.4384 95.6689 29.2685C95.4697 29.0985 95.1885 28.9345 94.8252 28.7763C94.4678 28.6122 94.0107 28.4452 93.4541 28.2753C92.8447 28.0878 92.2822 27.8798 91.7666 27.6513C91.2568 27.4169 90.8115 27.1474 90.4307 26.8427C90.0498 26.5321 89.7539 26.1776 89.543 25.7792C89.332 25.3749 89.2266 24.9091 89.2266 24.3817C89.2266 23.8603 89.335 23.3857 89.5518 22.9579C89.7744 22.5302 90.0879 22.161 90.4922 21.8505C90.9023 21.5341 91.3857 21.2909 91.9424 21.121C92.499 20.9452 93.1143 20.8573 93.7881 20.8573C94.7373 20.8573 95.5547 21.0331 96.2402 21.3847C96.9316 21.7362 97.4619 22.2079 97.8311 22.7997C98.2061 23.3915 98.3936 24.0448 98.3936 24.7597H96.2051C96.2051 24.3378 96.1143 23.9657 95.9326 23.6435C95.7568 23.3153 95.4873 23.0575 95.124 22.87C94.7666 22.6825 94.3125 22.5888 93.7617 22.5888C93.2402 22.5888 92.8066 22.6679 92.4609 22.8261C92.1152 22.9843 91.8574 23.1982 91.6875 23.4677C91.5176 23.7372 91.4326 24.0419 91.4326 24.3817C91.4326 24.622 91.4883 24.8417 91.5996 25.0409C91.7109 25.2343 91.8809 25.4159 92.1094 25.5858C92.3379 25.7499 92.625 25.9052 92.9707 26.0517C93.3164 26.1982 93.7236 26.3388 94.1924 26.4735C94.9014 26.6845 95.5195 26.9189 96.0469 27.1767C96.5742 27.4286 97.0137 27.7157 97.3652 28.038C97.7168 28.3603 97.9805 28.7265 98.1562 29.1366C98.332 29.5409 98.4199 30.0009 98.4199 30.5165C98.4199 31.0556 98.3115 31.5419 98.0947 31.9755C97.8779 32.4032 97.5674 32.7694 97.1631 33.0741C96.7646 33.373 96.2842 33.6044 95.7217 33.7685C95.165 33.9267 94.5439 34.0058 93.8584 34.0058C93.2432 34.0058 92.6367 33.9237 92.0391 33.7597C91.4473 33.5956 90.9082 33.3466 90.4219 33.0126C89.9355 32.6728 89.5488 32.2509 89.2617 31.747C88.9746 31.2372 88.8311 30.6425 88.8311 29.9628H91.0371C91.0371 30.3788 91.1074 30.7333 91.248 31.0263C91.3945 31.3192 91.5967 31.5595 91.8545 31.747C92.1123 31.9286 92.4111 32.0634 92.751 32.1513C93.0967 32.2392 93.4658 32.2831 93.8584 32.2831C94.374 32.2831 94.8047 32.2099 95.1504 32.0634C95.502 31.9169 95.7656 31.7118 95.9414 31.4482C96.1172 31.1845 96.2051 30.8798 96.2051 30.5341ZM104.353 34.0058C103.649 34.0058 103.014 33.8915 102.445 33.663C101.883 33.4286 101.402 33.1034 101.004 32.6874C100.611 32.2714 100.31 31.7821 100.099 31.2196C99.8877 30.6571 99.7822 30.0507 99.7822 29.4003V29.0487C99.7822 28.3046 99.8906 27.6308 100.107 27.0273C100.324 26.4237 100.626 25.9081 101.013 25.4804C101.399 25.0468 101.856 24.7157 102.384 24.4872C102.911 24.2587 103.482 24.1444 104.098 24.1444C104.777 24.1444 105.372 24.2587 105.882 24.4872C106.392 24.7157 106.813 25.038 107.147 25.454C107.487 25.8642 107.739 26.3534 107.903 26.9218C108.073 27.4901 108.158 28.1171 108.158 28.8026V29.7079H100.811V28.1874H106.066V28.0204C106.055 27.6396 105.979 27.2821 105.838 26.9482C105.703 26.6142 105.495 26.3446 105.214 26.1396C104.933 25.9345 104.558 25.8319 104.089 25.8319C103.737 25.8319 103.424 25.9081 103.148 26.0605C102.879 26.2069 102.653 26.4208 102.472 26.7021C102.29 26.9833 102.149 27.3232 102.05 27.7216C101.956 28.1142 101.909 28.5565 101.909 29.0487V29.4003C101.909 29.8163 101.965 30.203 102.076 30.5605C102.193 30.912 102.363 31.2196 102.586 31.4833C102.809 31.747 103.078 31.955 103.395 32.1073C103.711 32.2538 104.071 32.3271 104.476 32.3271C104.985 32.3271 105.439 32.2245 105.838 32.0194C106.236 31.8144 106.582 31.5243 106.875 31.1493L107.991 32.2304C107.786 32.5292 107.52 32.8163 107.191 33.0917C106.863 33.3612 106.462 33.581 105.987 33.7509C105.519 33.9208 104.974 34.0058 104.353 34.0058ZM111.911 26.3505V33.83H109.793V24.3202H111.788L111.911 26.3505ZM111.533 28.7235L110.848 28.7148C110.854 28.0409 110.947 27.4228 111.129 26.8603C111.316 26.2978 111.574 25.8144 111.902 25.4101C112.236 25.0058 112.635 24.6952 113.098 24.4784C113.561 24.2558 114.076 24.1444 114.645 24.1444C115.102 24.1444 115.515 24.2089 115.884 24.3378C116.259 24.4608 116.578 24.663 116.842 24.9442C117.111 25.2255 117.316 25.5917 117.457 26.0429C117.598 26.4882 117.668 27.036 117.668 27.6864V33.83H115.541V27.6776C115.541 27.2206 115.474 26.8603 115.339 26.5966C115.21 26.3271 115.02 26.1366 114.768 26.0253C114.521 25.9081 114.214 25.8495 113.845 25.8495C113.481 25.8495 113.156 25.9257 112.869 26.078C112.582 26.2304 112.339 26.4384 112.14 26.7021C111.946 26.9657 111.797 27.2704 111.691 27.6161C111.586 27.9618 111.533 28.331 111.533 28.7235ZM125.631 31.8612V20.33H127.758V33.83H125.833L125.631 31.8612ZM119.443 29.1806V28.996C119.443 28.2753 119.528 27.619 119.698 27.0273C119.868 26.4296 120.114 25.9169 120.437 25.4892C120.759 25.0556 121.151 24.7245 121.614 24.496C122.077 24.2616 122.599 24.1444 123.179 24.1444C123.753 24.1444 124.257 24.2558 124.69 24.4784C125.124 24.7011 125.493 25.0204 125.798 25.4364C126.103 25.8466 126.346 26.3388 126.527 26.913C126.709 27.4814 126.838 28.1142 126.914 28.8114V29.4003C126.838 30.08 126.709 30.7011 126.527 31.2636C126.346 31.8261 126.103 32.3124 125.798 32.7226C125.493 33.1327 125.121 33.4491 124.682 33.6718C124.248 33.8944 123.741 34.0058 123.161 34.0058C122.587 34.0058 122.068 33.8857 121.605 33.6454C121.148 33.4052 120.759 33.0683 120.437 32.6347C120.114 32.2011 119.868 31.6913 119.698 31.1054C119.528 30.5136 119.443 29.872 119.443 29.1806ZM121.562 28.996V29.1806C121.562 29.6142 121.6 30.0185 121.676 30.3935C121.758 30.7685 121.884 31.0995 122.054 31.3866C122.224 31.6679 122.443 31.8905 122.713 32.0546C122.988 32.2128 123.316 32.2919 123.697 32.2919C124.178 32.2919 124.573 32.1864 124.884 31.9755C125.194 31.7646 125.438 31.4804 125.613 31.123C125.795 30.7597 125.918 30.3554 125.982 29.9101V28.3192C125.947 27.9735 125.874 27.6513 125.763 27.3524C125.657 27.0536 125.514 26.7929 125.332 26.5702C125.15 26.3417 124.925 26.1659 124.655 26.0429C124.392 25.914 124.078 25.8495 123.715 25.8495C123.328 25.8495 123 25.9315 122.73 26.0956C122.461 26.2597 122.238 26.4853 122.062 26.7724C121.893 27.0595 121.767 27.3935 121.685 27.7743C121.603 28.1552 121.562 28.5624 121.562 28.996Z" fill="white"/>
</g>
<defs>
<clipPath id="clip0_11844_64">
<rect width="88.5244" height="32" fill="white" transform="translate(45.7812 11.83)"/>
</clipPath>
</defs>
</svg>
